# xmcd CD database file
#
# Track frame offsets:
#	150
#	22212
#	40715
#	60186
#	79142
#	99382
#	119680
#	136015
#	153190
#	181877
#	210360
#	232285
#
# Disc length: 3431 seconds
#
# Revision: 3
# Processed by: cddbd v1.5.1PL0 Copyright (c) Steve Scherf et al.
# Submitted via: CDex 1.51
#
DISCID=950d650c
DTITLE=徳永英明 - Ballade of Ballade [CD1]
DYEAR=1997
DGENRE=J-Pop
TTITLE0=最後の学園祭
TTITLE1=9月のストレンジャー
TTITLE2=心の中はバラード
TTITLE3=BIRDS
TTITLE4=さよならの水彩画
TTITLE5=輝きながら・・・
TTITLE6=ため息のステイ
TTITLE7=風のエオリア
TTITLE8=Melodyー永遠の鍵ー
TTITLE9=最後の言い訳
TTITLE10=恋人
TTITLE11=君の青
EXTD=YEAR: 1997
EXTT0=
EXTT1=
EXTT2=
EXTT3=
EXTT4=
EXTT5=
EXTT6=
EXTT7=
EXTT8=
EXTT9=
EXTT10=
EXTT11=
PLAYORDER=
